<?xml version="1.0" standalone="no"?>
<!DOCTYPE svg PUBLIC "-//W3C//DTD SVG 20010904//EN"
 "http://www.w3.org/TR/2001/REC-SVG-20010904/DTD/svg10.dtd">
<svg version="1.0" xmlns="http://www.w3.org/2000/svg"
 width="736.000000pt" height="957.000000pt" viewBox="0 0 736.000000 957.000000"
 preserveAspectRatio="xMidYMid meet">

<g transform="translate(0.000000,957.000000) scale(0.100000,-0.100000)"
fill="#000000" stroke="none">
<path d="M4345 9256 c-49 -18 -126 -45 -170 -61 -63 -22 -97 -29 -160 -29 -44
0 -92 3 -108 7 -42 11 -44 -14 -4 -96 40 -84 65 -114 126 -152 42 -26 49 -27
126 -21 86 6 182 33 239 67 19 11 36 16 39 12 3 -4 -2 -48 -10 -98 -7 -49 -18
-117 -23 -150 -4 -33 -11 -73 -14 -90 -3 -16 -17 -102 -31 -190 -45 -287 -76
-425 -130 -590 -18 -55 -40 -127 -50 -160 -9 -33 -26 -86 -36 -118 -10 -32
-21 -74 -25 -93 -6 -32 -4 -34 25 -40 l31 -6 0 -132 0 -131 -81 -17 c-45 -9
-84 -19 -86 -22 -3 -3 0 -33 6 -68 7 -35 21 -124 31 -198 31 -210 30 -205 73
-203 l37 2 -1 -132 c0 -73 -4 -248 -8 -391 -7 -201 -12 -260 -22 -267 -21 -13
-65 -11 -76 4 -10 13 -40 96 -75 207 -11 36 -24 74 -28 85 -47 116 -88 319
-119 590 -16 143 -15 149 23 191 19 21 38 49 41 62 15 62 -47 142 -111 142
-66 0 -104 -32 -125 -102 -10 -36 1 -65 40 -110 l30 -34 -15 -105 c-53 -375
-69 -458 -111 -574 -32 -87 -81 -185 -92 -185 -13 0 -21 136 -21 360 0 188 2
217 25 306 29 113 31 150 10 158 -12 4 -15 26 -15 104 0 97 1 99 26 111 19 8
24 16 19 29 -34 85 -221 636 -234 687 -5 22 -16 67 -25 100 -29 115 -57 352
-79 670 l-12 180 -33 -3 c-28 -2 -315 -68 -442 -102 -19 -5 -59 -14 -88 -21
-30 -6 -51 -16 -49 -22 2 -6 35 -24 73 -40 178 -75 187 -77 362 -77 l155 0 -6
-32 c-3 -18 -15 -89 -26 -158 -22 -136 -37 -227 -51 -305 -18 -98 -40 -232
-65 -390 -14 -88 -30 -186 -35 -217 -6 -32 -15 -86 -20 -120 -6 -35 -16 -86
-22 -115 -14 -65 -3 -81 55 -85 l42 -3 5 -88 5 -89 -33 -14 c-38 -16 -39 -10
13 -142 l33 -84 -2 -311 c-1 -172 -3 -377 -4 -456 -1 -178 -12 -371 -21 -371
-4 0 -13 24 -20 53 -7 28 -26 94 -42 146 -16 52 -29 100 -29 108 0 9 11 28 25
45 37 44 34 91 -9 134 -47 47 -100 48 -145 2 -42 -43 -43 -99 -2 -145 32 -37
33 -23 -19 -288 -52 -263 -80 -393 -116 -535 -32 -126 -34 -136 -17 -147 9 -7
25 -13 35 -13 17 0 18 -15 18 -235 l0 -235 -95 0 -95 0 0 372 c0 304 3 374 14
387 14 16 19 68 32 329 l7 134 34 16 c18 9 33 19 33 24 0 4 -20 39 -45 78 -25
39 -45 72 -45 74 0 3 -33 58 -73 123 -91 146 -184 326 -227 438 -4 11 -15 38
-25 60 -65 150 -65 147 -75 469 -5 166 -10 314 -10 329 0 51 -7 50 -210 -45
-47 -22 -112 -53 -145 -68 -33 -15 -91 -42 -129 -59 -56 -25 -66 -33 -57 -45
7 -8 28 -16 49 -19 20 -3 69 -10 107 -16 70 -12 192 -7 250 9 17 5 47 11 68
15 l38 6 -6 -183 c-7 -205 -10 -242 -21 -260 -4 -7 -54 -89 -111 -181 -57 -92
-117 -191 -132 -220 -15 -29 -57 -99 -93 -157 -114 -185 -148 -242 -148 -246
0 -3 -12 -23 -26 -45 -28 -46 -26 -66 8 -71 l23 -3 5 -227 c3 -124 7 -228 10
-230 3 -3 20 -10 38 -18 l32 -13 -5 -196 c-3 -108 -8 -281 -10 -385 l-6 -188
-92 -112 c-108 -132 -252 -315 -285 -363 -24 -34 -22 -38 23 -45 22 -3 20 15
40 -354 l8 -141 -24 -6 c-13 -4 -37 -7 -52 -7 l-29 0 4 202 3 202 -35 7 c-19
4 -67 13 -106 20 l-72 12 -22 51 c-13 28 -69 143 -124 256 l-102 206 53 48
c50 46 53 50 53 98 0 45 -4 53 -42 89 -23 21 -52 39 -64 39 -12 0 -35 3 -52 6
-26 5 -37 0 -76 -36 -41 -38 -46 -47 -46 -86 0 -51 35 -113 75 -134 14 -7 25
-19 25 -27 0 -15 -250 -458 -277 -492 -14 -17 -32 -23 -88 -27 -137 -10 -135
-9 -135 -58 0 -23 4 -67 9 -97 6 -30 15 -101 21 -159 22 -197 42 -335 52 -347
6 -7 28 -13 49 -13 21 0 40 -4 43 -9 3 -5 1 -78 -4 -162 -5 -85 -10 -199 -11
-254 0 -55 -5 -152 -10 -215 -4 -63 -13 -236 -19 -385 -6 -148 -15 -355 -21
-460 -10 -195 -26 -534 -34 -730 -3 -60 -7 -141 -9 -178 l-5 -69 50 -46 c28
-26 65 -53 82 -60 106 -45 429 -57 571 -22 84 21 93 26 194 83 34 20 95 48
135 63 64 23 81 25 159 20 91 -6 217 -29 278 -50 19 -7 68 -34 109 -61 155
-102 374 -123 521 -50 25 12 72 25 105 28 33 3 121 16 195 27 107 18 168 21
295 19 147 -3 1112 -3 1285 0 41 1 100 7 130 14 41 10 99 11 224 5 l170 -7 81
-40 c123 -59 180 -71 351 -71 236 0 294 14 455 105 130 75 176 87 256 71 33
-7 66 -16 74 -21 8 -4 53 -32 100 -61 115 -72 169 -92 329 -119 168 -29 316
-13 491 54 101 38 95 21 80 237 -6 104 -14 207 -16 229 -2 22 -9 105 -15 185
-6 80 -15 190 -20 245 -5 55 -12 134 -15 175 -11 158 -25 339 -35 445 -24 261
-31 341 -45 540 -8 116 -17 235 -20 266 l-4 56 77 51 c42 28 85 57 95 64 14
10 24 49 43 178 14 91 30 194 35 230 25 156 26 181 10 189 -9 5 -60 11 -113
14 -124 7 -144 17 -173 87 -12 30 -33 80 -47 110 -49 106 -66 146 -101 230
-19 47 -49 115 -66 153 -17 37 -31 71 -31 76 0 4 12 18 26 32 63 59 68 123 11
176 -45 43 -91 57 -127 38 -60 -31 -94 -109 -70 -156 7 -13 26 -38 43 -56 l30
-32 -28 -68 c-15 -37 -34 -86 -42 -108 -9 -22 -19 -49 -24 -60 -5 -11 -20 -51
-34 -90 -14 -38 -29 -79 -34 -90 -5 -11 -21 -51 -36 -90 -14 -38 -33 -85 -41
-102 l-14 -33 -106 0 -106 0 4 127 3 127 42 11 c23 5 44 13 48 17 4 3 -53 122
-126 265 -73 142 -162 317 -199 388 l-66 130 -157 14 -157 14 -2 99 c-1 54 -2
112 -2 130 -1 29 3 33 38 43 47 14 52 24 32 67 -8 18 -25 58 -36 88 -12 30
-27 69 -35 85 -11 26 -52 128 -75 190 -4 11 -13 34 -20 50 -34 85 -55 169 -70
290 -11 84 -21 158 -43 317 l-14 96 44 39 c40 37 43 43 43 90 0 74 -31 109
-102 116 -124 12 -177 -95 -96 -196 28 -35 30 -44 25 -95 -3 -32 -17 -122 -31
-202 -15 -80 -29 -161 -33 -180 -3 -19 -39 -186 -80 -370 -42 -184 -78 -347
-80 -362 -5 -29 4 -34 72 -40 l30 -3 0 -110 0 -110 -90 0 -90 0 -3 947 -2 948
24 6 c27 6 23 -11 66 283 11 79 18 147 15 150 -4 3 -40 7 -81 9 -45 3 -77 9
-79 16 -2 6 -6 73 -9 148 l-6 137 35 12 c24 9 34 18 31 29 -3 8 -8 29 -11 45
-4 17 -17 77 -31 135 -14 58 -29 123 -34 145 -5 22 -18 76 -29 120 -12 44 -25
101 -30 125 -5 25 -17 74 -25 110 -9 36 -23 99 -32 140 -9 41 -20 86 -24 100
-5 14 -16 102 -25 195 -8 94 -19 204 -24 245 -6 41 -15 129 -21 195 -6 66 -16
150 -22 188 -12 80 -11 80 -143 33z"/>
</g>
</svg>
