<?xml version="1.0" standalone="no"?>
<!DOCTYPE svg PUBLIC "-//W3C//DTD SVG 20010904//EN"
 "http://www.w3.org/TR/2001/REC-SVG-20010904/DTD/svg10.dtd">
<svg version="1.0" xmlns="http://www.w3.org/2000/svg"
 width="500.000000pt" height="648.000000pt" viewBox="0 0 500.000000 648.000000"
 preserveAspectRatio="xMidYMid meet">

<g transform="translate(0.000000,648.000000) scale(0.100000,-0.100000)"
fill="#000000" stroke="none">
<path d="M2545 6401 c-17 -4 -42 -15 -55 -23 -14 -9 -38 -19 -54 -22 -36 -9
-96 -67 -96 -94 0 -14 -20 -32 -67 -60 -38 -22 -88 -57 -112 -78 -37 -32 -51
-38 -93 -38 -43 -1 -54 -5 -79 -34 -22 -24 -29 -42 -29 -72 0 -21 -5 -51 -10
-66 -25 -64 25 -138 118 -174 79 -32 82 -36 82 -92 0 -27 5 -59 11 -71 17 -32
127 -140 176 -171 l42 -28 -35 -48 c-19 -26 -37 -61 -40 -78 -5 -25 -14 -33
-53 -47 -92 -35 -186 -91 -237 -142 -51 -51 -53 -52 -81 -38 -85 41 -173 21
-205 -47 -10 -20 -27 -39 -38 -43 -24 -8 -50 -54 -50 -89 0 -14 -8 -41 -17
-61 -15 -32 -16 -40 -3 -78 12 -33 24 -47 57 -63 l42 -21 -22 -31 c-17 -24
-30 -32 -54 -32 -21 0 -40 -8 -50 -21 -30 -34 -64 -65 -160 -144 -51 -42 -132
-120 -180 -173 -48 -53 -114 -122 -145 -152 -50 -47 -62 -67 -89 -140 -17 -47
-42 -105 -56 -128 -18 -32 -24 -54 -20 -80 3 -24 -2 -50 -14 -74 -19 -38 -49
-186 -49 -244 0 -35 -104 -266 -124 -273 -24 -9 -55 -51 -50 -66 4 -9 -2 -25
-13 -38 -30 -32 -43 -62 -43 -96 0 -20 -7 -34 -19 -41 -27 -14 -42 -68 -41
-142 2 -47 -4 -78 -23 -123 -14 -34 -35 -109 -46 -168 -27 -140 -68 -221 -210
-412 -134 -181 -161 -231 -161 -298 0 -93 66 -157 255 -249 58 -28 105 -57
105 -64 0 -38 -93 -247 -175 -394 -67 -120 10 -219 235 -301 56 -20 77 -36
155 -114 215 -218 490 -304 835 -262 l115 14 41 -41 c38 -38 117 -84 206 -120
27 -11 38 -22 43 -45 18 -84 79 -104 142 -47 l38 33 70 -9 c94 -13 370 -4 475
17 218 42 423 119 487 183 l29 30 85 -15 c102 -18 265 -13 359 12 127 33 339
146 460 244 54 44 57 45 118 42 123 -5 256 54 368 164 l71 70 7 74 7 73 83 87
c134 142 193 261 203 411 10 134 -31 234 -135 339 -37 37 -91 106 -120 153
-28 47 -81 117 -116 156 l-63 71 -6 78 c-3 43 -13 98 -22 123 -13 37 -14 52
-4 87 6 23 9 57 6 75 -3 18 -9 49 -12 68 -12 70 -15 79 -41 109 -14 17 -58 46
-98 64 -39 19 -76 40 -82 48 -7 8 -24 46 -39 84 -15 39 -40 93 -55 120 -15 28
-31 68 -35 90 -9 55 -62 179 -84 199 -11 10 -17 25 -14 36 4 13 -7 27 -38 50
-24 17 -60 55 -81 85 -25 34 -64 70 -107 99 -77 51 -89 68 -211 301 -40 77
-95 175 -122 218 -33 54 -48 89 -48 113 0 37 -36 84 -64 84 -8 0 -31 30 -51
66 l-37 66 25 26 c31 35 39 57 27 86 -6 17 -5 29 5 42 20 27 18 78 -4 105 -13
17 -17 33 -14 56 8 47 -31 78 -140 111 -89 26 -115 46 -83 64 55 31 83 193 51
304 -9 32 -48 119 -86 193 -49 96 -76 161 -93 230 -27 112 -81 231 -130 290
-33 39 -34 43 -20 69 18 35 18 64 -1 108 -17 42 -121 161 -155 179 -35 17 -89
24 -125 16z m-493 -1860 c18 -21 52 -77 75 -123 64 -130 78 -250 37 -329 -13
-26 -20 -29 -62 -29 -62 -1 -142 -35 -239 -102 -58 -41 -90 -56 -126 -61 -27
-4 -87 -21 -135 -37 -213 -75 -271 -92 -335 -97 -47 -4 -76 -2 -95 8 -15 7
-28 14 -30 15 -1 0 5 20 13 44 8 23 15 60 15 81 0 47 1 47 296 215 104 60 208
125 230 146 28 26 47 36 58 32 21 -8 56 22 56 49 0 11 20 37 44 58 24 21 68
68 97 104 29 36 56 65 60 65 4 0 22 -18 41 -39z m910 -4 c9 -18 44 -68 79
-111 35 -43 78 -101 96 -128 27 -44 31 -57 26 -102 -4 -43 -1 -55 16 -73 12
-13 28 -23 35 -23 7 0 51 -48 97 -107 46 -59 134 -157 196 -219 86 -86 113
-118 113 -138 0 -25 -2 -26 -55 -26 l-54 0 -116 109 c-87 83 -136 119 -198
152 -45 23 -105 63 -134 89 -98 89 -216 140 -324 140 -55 0 -57 1 -68 31 -17
48 -13 109 9 158 31 67 220 281 250 281 9 0 23 -15 32 -33z"/>
<path d="M4200 609 c0 -14 10 -16 55 -15 32 0 57 6 59 13 3 7 -3 10 -15 8 -10
-2 -19 2 -19 8 0 8 -3 8 -8 2 -9 -13 -32 -18 -32 -7 0 4 -9 8 -20 8 -12 0 -20
-7 -20 -17z"/>
</g>
</svg>
